<svg xmlns="http://www.w3.org/2000/svg" width="163.783" height="164" viewBox="0 0 163.783 164"><g transform="translate(-0.301 0)"><path d="M146.21,149.068c-25.095,20.486-103.453,20.486-128.036,0C-6.92,128.582-4.359,41.006,18.175,17.96s105.5-23.046,128.036,0S171.305,128.583,146.21,149.068Z" transform="translate(0 -0.432)" fill="#d43f53"/><path d="M82.838,112.787C60.3,130.712,35.209,139.93,11.651,140.442-5.762,110.738-2.177,38.526,18.309,17.528,36.746-1.421,94.618-5.006,127.907,6.773,136.1,40.575,119.2,83.594,82.838,112.787Z" transform="translate(-0.133)" fill="#de4a5e"/><g transform="translate(30.979 52.891)"><path d="M113.661,186.925,128,151.075h13.828l-22.534,56.336H108.539L85.493,151.075H99.321Z" transform="translate(-85.493 -150.563)" fill="#fff"/><path d="M262.164,161.487a5.63,5.63,0,0,0-2.017,4.043,4.658,4.658,0,0,0,2.049,4.1c1.537,1.024,5.121,2.049,10.243,3.585s9.731,3.073,12.291,6.146c3.073,2.561,4.609,6.658,4.609,11.267a15.583,15.583,0,0,1-5.633,12.291c-3.585,3.073-8.707,4.609-14.852,4.609a34.531,34.531,0,0,1-24.07-9.731l7.682-9.219c6.146,5.121,11.779,8.194,16.9,8.194A9.2,9.2,0,0,0,275,195.235a5.121,5.121,0,0,0,0-8.194c-1.537-1.024-4.1-2.049-8.194-3.073-6.658-1.537-11.267-3.585-14.34-6.146s-4.609-6.658-4.609-11.779a15.583,15.583,0,0,1,5.633-12.291c3.585-3.073,8.706-4.1,14.34-4.1A29.191,29.191,0,0,1,279.1,151.7a39.39,39.39,0,0,1,9.731,5.633l-6.146,9.219c-5.121-3.585-9-5.854-15.131-6.231C264.909,160.324,263.929,160.194,262.164,161.487Z" transform="translate(-187.423 -149.654)" fill="#fff"/></g></g></svg>