<svg xmlns="http://www.w3.org/2000/svg" width="80" height="65" viewBox="0 0 80 65"><g transform="translate(-231 -75.941)"><g transform="translate(299.732 115.112) rotate(180)" fill="none"><path d="M28.732-.707,57.3,39.172H0Z" stroke="none"/><path d="M 28.71860885620117 9.575750350952148 L 11.71805572509766 33.17160034179688 L 45.62351608276367 33.17160034179688 L 28.71860885620117 9.575750350952148 M 28.73235511779785 -0.7073631286621094 L 57.30306243896484 39.17160034179688 L -3.814697265625e-06 39.17160034179688 L 28.73235511779785 -0.7073631286621094 Z" stroke="none" fill="#de4a5e"/></g><g transform="translate(311 140.941) rotate(180)" fill="none"><path d="M40,0,80,64.952,40,54.34,0,64.952Z" stroke="none"/><path d="M 40 11.44204330444336 L 12.99198150634766 55.29734039306641 L 38.46148300170898 48.54058837890625 L 40 48.13243865966797 L 41.53851699829102 48.54058837890625 L 67.00801849365234 55.29734039306641 L 40 11.44204330444336 M 40 -7.62939453125e-06 L 80 64.95150756835938 L 40 54.33998870849609 L 0 64.95150756835938 L 40 -7.62939453125e-06 Z" stroke="none" fill="#fff"/></g></g></svg>